<svg width="16" height="16" viewBox="0 0 16 16" fill="none" xmlns="http://www.w3.org/2000/svg">
<path d="M3.64398 11.646L7.64248 7.64749L8.34998 8.35449L4.35098 12.353L3.64398 11.646Z" fill="white"/>
<path d="M8.49997 15C8.43664 15.0002 8.37386 14.9883 8.31497 14.965C8.23306 14.9323 8.16124 14.8786 8.10679 14.8092C8.05235 14.7399 8.01722 14.6573 8.00497 14.57L7.50497 11.07L8.50497 10.93L8.87997 13.565L10.5 12.26V8.5C10.4996 8.4342 10.5122 8.36897 10.5371 8.30805C10.562 8.24713 10.5986 8.19172 10.645 8.145L12.68 6.11C13.0993 5.69353 13.4319 5.19803 13.6584 4.65219C13.885 4.10635 14.0011 3.521 14 2.93V2H13.07C12.479 1.99888 11.8936 2.11496 11.3478 2.34154C10.8019 2.56811 10.3064 2.90068 9.88997 3.32L7.85497 5.355C7.80825 5.40134 7.75284 5.438 7.69192 5.46289C7.63101 5.48777 7.56577 5.50038 7.49997 5.5H3.73997L2.43497 7.13L5.06997 7.505L4.92997 8.505L1.42997 8.005C1.34264 7.99275 1.26011 7.95762 1.19074 7.90318C1.12136 7.84874 1.06763 7.77692 1.03497 7.695C1.00191 7.61251 0.991434 7.5227 1.00462 7.43482C1.0178 7.34694 1.05417 7.26416 1.10997 7.195L3.10997 4.695C3.15603 4.63516 3.21505 4.58652 3.2826 4.55275C3.35014 4.51898 3.42446 4.50094 3.49997 4.5H7.29497L9.17997 2.61C9.68956 2.09755 10.2958 1.69137 10.9636 1.415C11.6313 1.13862 12.3473 0.997566 13.07 1H14C14.2652 1 14.5195 1.10536 14.7071 1.29289C14.8946 1.48043 15 1.73478 15 2V2.93C15.0024 3.65268 14.8613 4.36866 14.585 5.03642C14.3086 5.70417 13.9024 6.31042 13.39 6.82L11.5 8.705V12.5C11.4996 12.5751 11.4824 12.6492 11.4495 12.7167C11.4166 12.7842 11.3689 12.8434 11.31 12.89L8.80997 14.89C8.722 14.9606 8.61275 14.9993 8.49997 15Z" fill="white"/>
</svg>
