<svg width="15" height="16" viewBox="0 0 15 16" fill="none" xmlns="http://www.w3.org/2000/svg">
<path d="M5.33523 15.3433L0.120229 7.85074C0.0383154 7.71319 -0.00448769 7.53624 0.000372891 7.35527C0.00523347 7.1743 0.0573997 7.00264 0.146447 6.87458C0.235494 6.74652 0.354864 6.6715 0.480702 6.66451C0.60654 6.65752 0.729578 6.71907 0.825229 6.83687L5.32523 13.3084L14.1202 0.67455C14.2159 0.55675 14.3389 0.495194 14.4648 0.502184C14.5906 0.509174 14.71 0.584195 14.799 0.712255C14.8881 0.840316 14.9402 1.01198 14.9451 1.19295C14.95 1.37392 14.9071 1.55086 14.8252 1.68842L5.33523 15.3433Z" fill="#00B61D"/>
</svg>
